<?xml version="1.0" encoding="UTF-8"?>
<!DOCTYPE svg PUBLIC "-//W3C//DTD SVG 1.1//EN" "http://www.w3.org/Graphics/SVG/1.1/DTD/svg11.dtd">
<svg xmlns="http://www.w3.org/2000/svg" version="1.1" width="512px" height="512px" style="shape-rendering:geometricPrecision; text-rendering:geometricPrecision; image-rendering:optimizeQuality; fill-rule:evenodd; clip-rule:evenodd" xmlns:xlink="http://www.w3.org/1999/xlink">
<g><path style="opacity:0.927" fill="#5f85e9" d="M 114.5,-0.5 C 122.833,-0.5 131.167,-0.5 139.5,-0.5C 143.287,1.79717 145.787,5.13051 147,9.5C 147.667,16.1667 147.667,22.8333 147,29.5C 146.576,32.0254 145.41,34.0254 143.5,35.5C 140.233,33.5727 137.233,31.2394 134.5,28.5C 135.618,22.916 135.785,17.2493 135,11.5C 129.918,10.363 124.751,10.1963 119.5,11C 118.944,11.3826 118.611,11.8826 118.5,12.5C 115.862,9.52555 113.195,6.52555 110.5,3.5C 111.527,1.80584 112.861,0.472504 114.5,-0.5 Z"/></g>
<g><path style="opacity:0.983" fill="#2bb2e1" d="M 291.5,-0.5 C 299.5,-0.5 307.5,-0.5 315.5,-0.5C 318.858,1.69966 321.358,4.69966 323,8.5C 323.667,15.8333 323.667,23.1667 323,30.5C 322.208,33.1064 320.708,35.1064 318.5,36.5C 316.573,33.2327 314.239,30.2327 311.5,27.5C 311.807,21.9066 311.473,16.4066 310.5,11C 305.5,10.3333 300.5,10.3333 295.5,11C 294.577,13.0408 294.244,15.2075 294.5,17.5C 290.434,14.4372 287.101,10.7706 284.5,6.5C 285.84,3.16035 288.173,0.827014 291.5,-0.5 Z"/></g>
<g><path style="opacity:0.943" fill="#13c6de" d="M 371.5,-0.5 C 379.833,-0.5 388.167,-0.5 396.5,-0.5C 403.239,4.35555 405.906,11.0222 404.5,19.5C 404.564,23.9189 404.064,28.2522 403,32.5C 401.924,35.079 400.091,36.7457 397.5,37.5C 394.167,34.8333 391.167,31.8333 388.5,28.5C 389.822,28.67 390.989,28.3366 392,27.5C 392.667,22.1667 392.667,16.8333 392,11.5C 386.918,10.363 381.751,10.1963 376.5,11C 375.748,11.6708 375.414,12.5041 375.5,13.5C 374.883,13.6107 374.383,13.944 374,14.5C 371.297,11.6286 368.464,8.96192 365.5,6.5C 366.787,3.54685 368.787,1.21351 371.5,-0.5 Z"/></g>
<g><path style="opacity:0.939" fill="#667eea" d="M 110.5,3.5 C 113.195,6.52555 115.862,9.52555 118.5,12.5C 118.334,17.5111 118.501,22.5111 119,27.5C 124.072,28.4714 129.238,28.8047 134.5,28.5C 137.233,31.2394 140.233,33.5727 143.5,35.5C 140.631,38.758 136.964,40.0914 132.5,39.5C 132.5,40.5 132.5,41.5 132.5,42.5C 131.732,43.2625 131.232,44.2625 131,45.5C 123.333,37.8333 115.667,30.1667 108,22.5C 107.617,23.056 107.117,23.3893 106.5,23.5C 106.334,18.8215 106.501,14.1548 107,9.5C 107.424,6.97457 108.59,4.97457 110.5,3.5 Z"/></g>
<g><path style="opacity:0.976" fill="#1ebce0" d="M 365.5,6.5 C 368.464,8.96192 371.297,11.6286 374,14.5C 374.383,13.944 374.883,13.6107 375.5,13.5C 375.334,18.1785 375.501,22.8452 376,27.5C 380.066,28.4637 384.233,28.797 388.5,28.5C 391.167,31.8333 394.167,34.8333 397.5,37.5C 395.22,39.2227 392.553,39.8893 389.5,39.5C 389.667,51.1714 389.5,62.8381 389,74.5C 388.617,75.056 388.117,75.3893 387.5,75.5C 384.5,72.8333 381.5,70.1667 378.5,67.5C 378.5,58.1667 378.5,48.8333 378.5,39.5C 366.325,38.5534 361.325,31.8868 363.5,19.5C 363.667,16.1667 363.833,12.8333 364,9.5C 364.232,8.26253 364.732,7.26253 365.5,6.5 Z"/></g>
<g><path style="opacity:0.957" fill="#34aae3" d="M 284.5,6.5 C 287.101,10.7706 290.434,14.4372 294.5,17.5C 294.18,20.8984 294.513,24.2317 295.5,27.5C 300.863,28.8291 306.197,28.8291 311.5,27.5C 314.239,30.2327 316.573,33.2327 318.5,36.5C 316.044,38.8676 313.044,39.8676 309.5,39.5C 309.5,45.5 309.5,51.5 309.5,57.5C 305.86,53.1938 301.86,49.1938 297.5,45.5C 297.5,43.5 297.5,41.5 297.5,39.5C 291.043,40.0251 286.543,37.3584 284,31.5C 282.948,27.5872 282.448,23.5872 282.5,19.5C 282.316,14.8929 282.983,10.5595 284.5,6.5 Z"/></g>
<g><path style="opacity:0.948" fill="#469be6" d="M 263.5,70.5 C 260.208,68.5419 257.208,66.2085 254.5,63.5C 256.461,61.0365 258.628,58.7032 261,56.5C 259.191,52.344 256.191,49.0106 252,46.5C 249.348,48.3198 246.848,50.3198 244.5,52.5C 241.833,50.1667 239.167,47.8333 236.5,45.5C 239.665,41.502 243.332,38.002 247.5,35C 251.625,34.1462 255.625,34.4796 259.5,36C 264.367,40.5323 268.867,45.3656 273,50.5C 273.667,53.8333 273.667,57.1667 273,60.5C 270.332,64.3341 267.165,67.6675 263.5,70.5 Z"/></g>
<g><path style="opacity:0.965" fill="#588be8" d="M 204.5,67.5 C 200.869,64.3707 197.369,61.0374 194,57.5C 193.768,58.7375 193.268,59.7375 192.5,60.5C 192.793,56.5633 192.46,52.73 191.5,49C 186.416,48.2223 181.416,48.3889 176.5,49.5C 173.833,46.5 171.167,43.5 168.5,40.5C 169.6,39.4415 170.934,38.6082 172.5,38C 198.456,31.4592 209.122,41.2925 204.5,67.5 Z"/></g>
<g><path style="opacity:0.975" fill="#6c79ea" d="M 132.5,42.5 C 132.5,51.1667 132.5,59.8333 132.5,68.5C 126.932,65.6128 123.266,61.2795 121.5,55.5C 121.5,50.1667 121.5,44.8333 121.5,39.5C 111.037,39.3688 106.037,34.0354 106.5,23.5C 107.117,23.3893 107.617,23.056 108,22.5C 115.667,30.1667 123.333,37.8333 131,45.5C 131.232,44.2625 131.732,43.2625 132.5,42.5 Z"/></g>
<g><path style="opacity:0.967" fill="#4e94e6" d="M 236.5,45.5 C 239.167,47.8333 241.833,50.1667 244.5,52.5C 243.527,54.0683 243.36,55.735 244,57.5C 246.167,59.6667 248.333,61.8333 250.5,64C 251.928,64.5791 253.262,64.4124 254.5,63.5C 257.208,66.2085 260.208,68.5419 263.5,70.5C 259.628,76.1469 254.295,77.9802 247.5,76C 246.069,75.5348 244.903,74.7014 244,73.5C 243.292,74.3805 242.458,75.0472 241.5,75.5C 239.833,71.8333 237.167,69.1667 233.5,67.5C 233.953,66.5416 234.619,65.7083 235.5,65C 231.695,60.9089 230.528,56.0755 232,50.5C 232.996,48.3395 234.496,46.6728 236.5,45.5 Z"/></g>
<g><path style="opacity:0.979" fill="#6084e9" d="M 168.5,40.5 C 171.167,43.5 173.833,46.5 176.5,49.5C 175.175,54.9008 175.175,60.4008 176.5,66C 181.5,66.6667 186.5,66.6667 191.5,66C 192.406,64.3005 192.739,62.4672 192.5,60.5C 193.268,59.7375 193.768,58.7375 194,57.5C 197.369,61.0374 200.869,64.3707 204.5,67.5C 202.304,74.3709 197.637,77.7042 190.5,77.5C 190.5,82.5 190.5,87.5 190.5,92.5C 190.167,92.5 189.833,92.5 189.5,92.5C 189.665,89.1501 189.498,85.8168 189,82.5C 181,74.5 173,66.5 165,58.5C 164.503,60.8098 164.337,63.1432 164.5,65.5C 163.349,60.3497 163.183,55.0164 164,49.5C 164.472,45.8895 165.972,42.8895 168.5,40.5 Z"/></g>
<g><path style="opacity:0.927" fill="#33abe3" d="M 343.5,84.5 C 340.5,81.1667 337.5,77.8333 334.5,74.5C 335.833,74.5 337.167,74.5 338.5,74.5C 338.5,71.8333 338.5,69.1667 338.5,66.5C 335.833,66.5 333.167,66.5 330.5,66.5C 330.5,67.8333 330.5,69.1667 330.5,70.5C 327.167,67.5 323.833,64.5 320.5,61.5C 321.684,58.1514 324.017,55.9847 327.5,55C 346.874,51.3747 354.374,59.208 350,78.5C 348.594,81.4086 346.428,83.4086 343.5,84.5 Z"/></g>
<g><path style="opacity:0.965" fill="#667fea" d="M 189.5,92.5 C 189.665,96.1817 189.499,99.8484 189,103.5C 185.631,99.9626 182.131,96.6293 178.5,93.5C 178.5,88.1667 178.5,82.8333 178.5,77.5C 169.75,78.0751 165.084,74.0751 164.5,65.5C 164.337,63.1432 164.503,60.8098 165,58.5C 173,66.5 181,74.5 189,82.5C 189.498,85.8168 189.665,89.1501 189.5,92.5 Z"/></g>
<g><path style="opacity:0.91" fill="#7374ec" d="M 121.5,55.5 C 123.266,61.2795 126.932,65.6128 132.5,68.5C 140.495,75.662 147.995,83.3287 155,91.5C 155.5,101.494 155.666,111.494 155.5,121.5C 153.514,115.971 150.014,111.305 145,107.5C 144.828,113.681 144.328,119.681 143.5,125.5C 143.666,115.494 143.5,105.494 143,95.5C 136,88.5 129,81.5 122,74.5C 121.5,68.1754 121.334,61.8421 121.5,55.5 Z"/></g>
<g><path style="opacity:0.938" fill="#3fa1e4" d="M 297.5,45.5 C 301.86,49.1938 305.86,53.1938 309.5,57.5C 309.666,62.5111 309.499,67.5111 309,72.5C 306.026,77.9563 302.526,82.9563 298.5,87.5C 296.547,83.8797 293.881,80.8797 290.5,78.5C 292.657,75.5294 294.824,72.5294 297,69.5C 297.5,61.5069 297.666,53.5069 297.5,45.5 Z"/></g>
<g><path style="opacity:0.955" fill="#3aa6e4" d="M 320.5,61.5 C 323.833,64.5 327.167,67.5 330.5,70.5C 330.5,71.8333 330.5,73.1667 330.5,74.5C 331.833,74.5 333.167,74.5 334.5,74.5C 337.5,77.8333 340.5,81.1667 343.5,84.5C 342.791,85.404 341.791,85.7373 340.5,85.5C 340.5,91.5 340.5,97.5 340.5,103.5C 336.833,100.167 333.167,96.8333 329.5,93.5C 329.5,90.8333 329.5,88.1667 329.5,85.5C 325.316,85.1556 322.149,83.1556 320,79.5C 319.181,73.3188 319.347,67.3188 320.5,61.5 Z"/></g>
<g><path style="opacity:0.936" fill="#2fb0e3" d="M 378.5,67.5 C 381.5,70.1667 384.5,72.8333 387.5,75.5C 381.833,81.8333 375.833,87.8333 369.5,93.5C 366.761,90.7673 364.427,87.7673 362.5,84.5C 367.833,78.8333 373.167,73.1667 378.5,67.5 Z"/></g>
<g><path style="opacity:0.956" fill="#588ce8" d="M 233.5,67.5 C 237.167,69.1667 239.833,71.8333 241.5,75.5C 235.823,82.2068 230.157,88.8735 224.5,95.5C 221.488,93.9006 218.488,91.5673 215.5,88.5C 221.273,81.2735 227.273,74.2735 233.5,67.5 Z"/></g>
<g><path style="opacity:0.946" fill="#479ae6" d="M 290.5,78.5 C 293.881,80.8797 296.547,83.8797 298.5,87.5C 296.5,90.5 294.5,93.5 292.5,96.5C 291.732,97.2625 291.232,98.2625 291,99.5C 287.964,96.2956 284.797,93.2956 281.5,90.5C 284.5,86.5 287.5,82.5 290.5,78.5 Z"/></g>
<g><path style="opacity:0.968" fill="#36aae4" d="M 362.5,84.5 C 364.427,87.7673 366.761,90.7673 369.5,93.5C 369.217,94.2891 368.717,94.9558 368,95.5C 367.5,102.158 367.334,108.825 367.5,115.5C 363.86,111.194 359.86,107.194 355.5,103.5C 353.66,95.44 355.993,89.1066 362.5,84.5 Z"/></g>
<g><path style="opacity:0.956" fill="#6084e9" d="M 215.5,88.5 C 218.488,91.5673 221.488,93.9006 224.5,95.5C 224.5,102.833 224.5,110.167 224.5,117.5C 220.869,114.371 217.369,111.037 214,107.5C 213.824,103.312 213.324,99.3123 212.5,95.5C 212.552,92.6538 213.552,90.3204 215.5,88.5 Z"/></g>
<g><path style="opacity:0.959" fill="#6e78ea" d="M 189.5,92.5 C 189.833,92.5 190.167,92.5 190.5,92.5C 190.667,104.171 190.5,115.838 190,127.5C 187.947,131.292 184.781,132.458 180.5,131C 179.874,130.25 179.374,129.416 179,128.5C 178.5,116.838 178.333,105.171 178.5,93.5C 182.131,96.6293 185.631,99.9626 189,103.5C 189.499,99.8484 189.665,96.1817 189.5,92.5 Z"/></g>
<g><path style="opacity:0.871" fill="#4f93e6" d="M 281.5,90.5 C 284.797,93.2956 287.964,96.2956 291,99.5C 291.232,98.2625 291.732,97.2625 292.5,96.5C 292.666,106.839 292.5,117.172 292,127.5C 289.947,131.292 286.781,132.458 282.5,131C 281.874,130.25 281.374,129.416 281,128.5C 280.188,115.758 280.354,103.091 281.5,90.5 Z"/></g>
<g><path style="opacity:0.85" fill="#667fea" d="M 212.5,95.5 C 213.324,99.3123 213.824,103.312 214,107.5C 217.369,111.037 220.869,114.371 224.5,117.5C 224.665,121.182 224.499,124.848 224,128.5C 220.952,132.01 217.619,132.343 214,129.5C 212.544,118.269 212.044,106.936 212.5,95.5 Z"/></g>
<g><path style="opacity:0.972" fill="#419ee5" d="M 329.5,93.5 C 333.167,96.8333 336.833,100.167 340.5,103.5C 340.666,111.84 340.5,120.173 340,128.5C 339.626,129.416 339.126,130.25 338.5,131C 335.331,131.978 332.497,131.478 330,129.5C 329.5,117.505 329.333,105.505 329.5,93.5 Z"/></g>
<g><path style="opacity:0.964" fill="#3ba3e4" d="M 355.5,103.5 C 359.86,107.194 363.86,111.194 367.5,115.5C 367.809,120.267 367.309,124.934 366,129.5C 363.503,131.478 360.669,131.978 357.5,131C 356.874,130.25 356.374,129.416 356,128.5C 355.5,120.173 355.334,111.84 355.5,103.5 Z"/></g>
<g><path style="opacity:0.943" fill="#9f4ff1" d="M 25.5,106.5 C 24.7375,107.268 23.7375,107.768 22.5,108C 30.7024,116.035 38.7024,124.202 46.5,132.5C 44.1667,132.5 41.8333,132.5 39.5,132.5C 39.9763,136.378 38.9763,139.712 36.5,142.5C 33.0969,140.1 30.4302,137.1 28.5,133.5C 28.7768,128.767 28.4435,124.1 27.5,119.5C 22.2079,118.505 16.8746,118.172 11.5,118.5C 9.16667,115.5 6.5,112.833 3.5,110.5C 4.97457,108.59 6.97457,107.424 9.5,107C 14.8229,106.501 20.1563,106.334 25.5,106.5 Z"/></g>
<g><path style="opacity:0.963" fill="#9953f0" d="M 25.5,106.5 C 34.9957,106.996 39.6624,111.996 39.5,121.5C 46.1667,121.5 52.8333,121.5 59.5,121.5C 62.2956,124.797 65.2956,127.964 68.5,131C 67.5842,131.278 66.9175,131.778 66.5,132.5C 59.8333,132.5 53.1667,132.5 46.5,132.5C 38.7024,124.202 30.7024,116.035 22.5,108C 23.7375,107.768 24.7375,107.268 25.5,106.5 Z"/></g>
<g><path style="opacity:0.979" fill="#7a6eed" d="M 155.5,121.5 C 157.037,129.348 154.037,132.515 146.5,131C 145.029,129.417 144.029,127.583 143.5,125.5C 144.328,119.681 144.828,113.681 145,107.5C 150.014,111.305 153.514,115.971 155.5,121.5 Z"/></g>
<g><path style="opacity:0.913" fill="#588ce8" d="M 258.5,89.5 C 260.857,89.3367 263.19,89.5034 265.5,90C 266.126,90.7504 266.626,91.5838 267,92.5C 267.667,104.5 267.667,116.5 267,128.5C 264.833,131.287 261.999,132.12 258.5,131C 257.299,130.097 256.465,128.931 256,127.5C 255.333,116.167 255.333,104.833 256,93.5C 256.662,92.0161 257.496,90.6828 258.5,89.5 Z"/></g>
<g><path style="opacity:0.951" fill="#a648f3" d="M 3.5,110.5 C 6.5,112.833 9.16667,115.5 11.5,118.5C 10.1888,124 10.1888,129.5 11.5,135C 17.4553,136.042 23.122,135.542 28.5,133.5C 30.4302,137.1 33.0969,140.1 36.5,142.5C 34.8802,144.984 32.5469,146.484 29.5,147C 22.8333,147.667 16.1667,147.667 9.5,147C 5.13051,145.787 1.79717,143.287 -0.5,139.5C -0.5,131.167 -0.5,122.833 -0.5,114.5C 0.472504,112.861 1.80584,111.527 3.5,110.5 Z"/></g>
<g><path style="opacity:0.982" fill="#1ebde0" d="M 473.5,113.5 C 476.167,116.833 479.167,119.833 482.5,122.5C 482.234,126.571 482.567,130.571 483.5,134.5C 487.445,135.491 491.445,135.824 495.5,135.5C 498.871,137.354 501.871,139.854 504.5,143C 505.448,143.483 506.448,143.649 507.5,143.5C 506.025,145.41 504.025,146.576 501.5,147C 494.833,147.667 488.167,147.667 481.5,147C 474.342,144.862 471.009,140.029 471.5,132.5C 461.833,132.5 452.167,132.5 442.5,132.5C 440.901,129.488 438.567,126.488 435.5,123.5C 435.611,122.883 435.944,122.383 436.5,122C 448.162,121.5 459.829,121.333 471.5,121.5C 471.111,118.447 471.777,115.78 473.5,113.5 Z"/></g>
<g><path style="opacity:0.944" fill="#14c6df" d="M 511.5,114.5 C 511.5,122.833 511.5,131.167 511.5,139.5C 510.527,141.139 509.194,142.473 507.5,143.5C 506.448,143.649 505.448,143.483 504.5,143C 501.871,139.854 498.871,137.354 495.5,135.5C 497.144,135.714 498.644,135.38 500,134.5C 500.667,129.5 500.667,124.5 500,119.5C 494.584,118.361 489.084,118.194 483.5,119C 482.663,120.011 482.33,121.178 482.5,122.5C 479.167,119.833 476.167,116.833 473.5,113.5C 474.254,110.909 475.921,109.076 478.5,108C 487.167,106 495.833,106 504.5,108C 507.358,109.694 509.691,111.861 511.5,114.5 Z"/></g>
<g><path style="opacity:0.96" fill="#9359f0" d="M 59.5,121.5 C 64.5111,121.334 69.5111,121.501 74.5,122C 81.5,129 88.5,136 95.5,143C 104.494,143.5 113.494,143.666 122.5,143.5C 117.684,144.326 112.684,144.826 107.5,145C 111.305,150.014 115.971,153.514 121.5,155.5C 111.494,155.666 101.494,155.5 91.5,155C 83.276,147.271 74.9426,139.771 66.5,132.5C 66.9175,131.778 67.5842,131.278 68.5,131C 65.2956,127.964 62.2956,124.797 59.5,121.5 Z"/></g>
<g><path style="opacity:0.938" fill="#2eb1e3" d="M 435.5,123.5 C 438.567,126.488 440.901,129.488 442.5,132.5C 438.5,137.167 434.167,141.5 429.5,145.5C 426.5,143.167 423.833,140.5 421.5,137.5C 425.833,132.5 430.5,127.833 435.5,123.5 Z"/></g>
<g><path style="opacity:0.968" fill="#34abe4" d="M 421.5,137.5 C 423.833,140.5 426.5,143.167 429.5,145.5C 426.281,150.397 421.948,153.731 416.5,155.5C 412.124,152.637 408.124,149.137 404.5,145C 406.708,144.809 408.708,144.309 410.5,143.5C 412.199,143.66 413.866,143.494 415.5,143C 417.37,140.96 419.37,139.127 421.5,137.5 Z"/></g>
<g><path style="opacity:0.98" fill="#7a6eec" d="M 186.5,143.5 C 190.008,148.357 194.341,152.024 199.5,154.5C 188.833,154.5 178.167,154.5 167.5,154.5C 164.436,151.43 161.103,148.763 157.5,146.5C 158.842,145.207 160.509,144.374 162.5,144C 170.493,143.5 178.493,143.334 186.5,143.5 Z"/></g>
<g><path style="opacity:0.98" fill="#7374ec" d="M 186.5,143.5 C 193.167,143.5 199.833,143.5 206.5,143.5C 210.106,148.801 214.772,152.468 220.5,154.5C 213.5,154.5 206.5,154.5 199.5,154.5C 194.341,152.024 190.008,148.357 186.5,143.5 Z"/></g>
<g><path style="opacity:0.978" fill="#6d79eb" d="M 206.5,143.5 C 214.167,143.5 221.833,143.5 229.5,143.5C 232.86,147.527 236.527,151.194 240.5,154.5C 233.833,154.5 227.167,154.5 220.5,154.5C 214.772,152.468 210.106,148.801 206.5,143.5 Z"/></g>
<g><path style="opacity:0.971" fill="#667fea" d="M 229.5,143.5 C 236.5,143.5 243.5,143.5 250.5,143.5C 253.833,147.167 257.167,150.833 260.5,154.5C 253.833,154.5 247.167,154.5 240.5,154.5C 236.527,151.194 232.86,147.527 229.5,143.5 Z"/></g>
<g><path style="opacity:0.97" fill="#6084e9" d="M 250.5,143.5 C 257.5,143.5 264.5,143.5 271.5,143.5C 274.833,147.167 278.167,150.833 281.5,154.5C 274.5,154.5 267.5,154.5 260.5,154.5C 257.167,150.833 253.833,147.167 250.5,143.5 Z"/></g>
<g><path style="opacity:0.97" fill="#588be8" d="M 271.5,143.5 C 282.5,143.5 293.5,143.5 304.5,143.5C 307.86,147.527 311.527,151.194 315.5,154.5C 304.167,154.5 292.833,154.5 281.5,154.5C 278.167,150.833 274.833,147.167 271.5,143.5 Z"/></g>
<g><path style="opacity:0.97" fill="#4f92e7" d="M 304.5,143.5 C 312.5,143.5 320.5,143.5 328.5,143.5C 331.833,147.167 335.167,150.833 338.5,154.5C 330.833,154.5 323.167,154.5 315.5,154.5C 311.527,151.194 307.86,147.527 304.5,143.5 Z"/></g>
<g><path style="opacity:0.959" fill="#4998e6" d="M 328.5,143.5 C 357.833,140.167 370.833,153.167 367.5,182.5C 363.833,179.167 360.167,175.833 356.5,172.5C 356.167,160.833 350.167,154.833 338.5,154.5C 335.167,150.833 331.833,147.167 328.5,143.5 Z"/></g>
<g><path style="opacity:0.845" fill="#3ba4e3" d="M 410.5,143.5 C 408.708,144.309 406.708,144.809 404.5,145C 408.124,149.137 412.124,152.637 416.5,155.5C 405.162,155.667 393.828,155.5 382.5,155C 381.584,154.626 380.75,154.126 380,153.5C 378.282,148.615 379.782,145.449 384.5,144C 393.16,143.5 401.827,143.334 410.5,143.5 Z"/></g>
<g><path style="opacity:0.975" fill="#8b60ef" d="M 122.5,143.5 C 130.386,143.206 133.053,146.706 130.5,154C 127.649,155.289 124.649,155.789 121.5,155.5C 115.971,153.514 111.305,150.014 107.5,145C 112.684,144.826 117.684,144.326 122.5,143.5 Z"/></g>
<g><path style="opacity:0.958" fill="#9f4ef1" d="M 85.5,170.5 C 88.8333,174.167 92.1667,177.833 95.5,181.5C 92.1667,181.5 88.8333,181.5 85.5,181.5C 85.8176,184.481 84.8176,186.815 82.5,188.5C 79.5,186.167 76.8333,183.5 74.5,180.5C 74.5,177.833 74.5,175.167 74.5,172.5C 71.8333,172.5 69.1667,172.5 66.5,172.5C 63.126,170.126 60.4593,167.126 58.5,163.5C 59.347,162.034 60.6803,161.2 62.5,161C 67.8333,160.333 73.1667,160.333 78.5,161C 82.5966,162.922 84.9299,166.088 85.5,170.5 Z"/></g>
<g><path style="opacity:0.967" fill="#2eafe2" d="M 472.5,195.5 C 469.167,192.5 465.833,189.5 462.5,186.5C 462.751,183.091 462.417,179.758 461.5,176.5C 458.232,175.513 454.898,175.18 451.5,175.5C 448.167,171.833 444.833,168.167 441.5,164.5C 448.138,163.502 454.805,163.335 461.5,164C 467.1,164.541 470.934,167.374 473,172.5C 473.822,180.345 473.656,188.011 472.5,195.5 Z"/></g>
<g><path style="opacity:0.961" fill="#8962ee" d="M 157.5,146.5 C 161.103,148.763 164.436,151.43 167.5,154.5C 160.849,156.32 156.682,160.653 155,167.5C 154.5,176.827 154.334,186.161 154.5,195.5C 152.734,189.721 149.068,185.387 143.5,182.5C 143.104,174.747 143.604,167.08 145,159.5C 147.347,153.322 151.513,148.988 157.5,146.5 Z"/></g>
<g><path style="opacity:0.98" fill="#a549f2" d="M 58.5,163.5 C 60.4593,167.126 63.126,170.126 66.5,172.5C 69.1667,172.5 71.8333,172.5 74.5,172.5C 74.5,175.167 74.5,177.833 74.5,180.5C 76.8333,183.5 79.5,186.167 82.5,188.5C 81.9423,189.79 80.9423,190.623 79.5,191C 59.7078,195.869 51.5412,188.369 55,168.5C 55.6972,166.416 56.8639,164.749 58.5,163.5 Z"/></g>
<g><path style="opacity:0.943" fill="#9457f0" d="M 85.5,170.5 C 99.8372,170.333 114.171,170.5 128.5,171C 129.416,171.374 130.25,171.874 131,172.5C 131.978,175.669 131.478,178.503 129.5,181C 118.172,181.5 106.838,181.667 95.5,181.5C 92.1667,177.833 88.8333,174.167 85.5,170.5 Z"/></g>
<g><path style="opacity:0.969" fill="#5092e7" d="M 356.5,172.5 C 360.167,175.833 363.833,179.167 367.5,182.5C 367.5,191.833 367.5,201.167 367.5,210.5C 365.468,204.772 361.801,200.106 356.5,196.5C 356.5,188.5 356.5,180.5 356.5,172.5 Z"/></g>
<g><path style="opacity:0.957" fill="#439de5" d="M 415.5,178.5 C 418.629,182.131 421.963,185.631 425.5,189C 418.987,189.172 412.653,189.672 406.5,190.5C 398.826,190.666 391.159,190.5 383.5,190C 379.708,187.947 378.542,184.781 380,180.5C 380.75,179.874 381.584,179.374 382.5,179C 393.495,178.5 404.495,178.333 415.5,178.5 Z"/></g>
<g><path style="opacity:0.894" fill="#38a7e3" d="M 441.5,164.5 C 444.833,168.167 448.167,171.833 451.5,175.5C 449.208,175.244 447.041,175.577 445,176.5C 444.333,181.5 444.333,186.5 445,191.5C 450.416,192.639 455.916,192.806 461.5,192C 462.406,190.301 462.739,188.467 462.5,186.5C 465.833,189.5 469.167,192.5 472.5,195.5C 471.415,199.754 468.748,202.587 464.5,204C 457.167,204.667 449.833,204.667 442.5,204C 436.092,201.761 433.092,197.261 433.5,190.5C 424.5,190.5 415.5,190.5 406.5,190.5C 412.653,189.672 418.987,189.172 425.5,189C 421.963,185.631 418.629,182.131 415.5,178.5C 421.5,178.5 427.5,178.5 433.5,178.5C 433.084,171.991 435.751,167.324 441.5,164.5 Z"/></g>
<g><path style="opacity:0.972" fill="#b53bf4" d="M 61.5,201.5 C 61.5,201.833 61.5,202.167 61.5,202.5C 55.1579,202.334 48.8246,202.5 42.5,203C 46.1074,206.098 49.1074,209.598 51.5,213.5C 47.5,213.5 43.5,213.5 39.5,213.5C 40.075,217.155 39.075,220.155 36.5,222.5C 34.5698,218.9 31.9031,215.9 28.5,213.5C 28.8,208.901 28.4667,204.401 27.5,200C 22.1667,199.333 16.8333,199.333 11.5,200C 10.944,200.383 10.6107,200.883 10.5,201.5C 7.5,198.833 4.5,196.167 1.5,193.5C 3.07144,190.769 5.40477,188.935 8.5,188C 15.8333,187.333 23.1667,187.333 30.5,188C 36.6219,190.408 39.6219,194.908 39.5,201.5C 46.8333,201.5 54.1667,201.5 61.5,201.5 Z"/></g>
<g><path style="opacity:0.952" fill="#be34f6" d="M 1.5,193.5 C 4.5,196.167 7.5,198.833 10.5,201.5C 10.1975,206.43 10.5308,211.263 11.5,216C 16.8643,216.829 22.1977,216.663 27.5,215.5C 27.8627,214.817 28.1961,214.15 28.5,213.5C 31.9031,215.9 34.5698,218.9 36.5,222.5C 36.5858,223.496 36.2524,224.329 35.5,225C 25.3077,229.246 14.9744,229.58 4.5,226C 2.44965,224.035 0.782988,221.868 -0.5,219.5C -0.5,211.5 -0.5,203.5 -0.5,195.5C 0.166667,194.833 0.833333,194.167 1.5,193.5 Z"/></g>
<g><path style="opacity:0.961" fill="#7870ec" d="M 275.5,262.5 C 271.473,259.14 267.806,255.473 264.5,251.5C 267.172,236.979 263.172,224.812 252.5,215C 246.389,211.094 239.722,209.594 232.5,210.5C 230.038,207.536 227.371,204.703 224.5,202C 225.056,201.617 225.389,201.117 225.5,200.5C 250.309,195.154 266.809,204.487 275,228.5C 275.5,239.828 275.667,251.162 275.5,262.5 Z"/></g>
<g><path style="opacity:0.952" fill="#667fea" d="M 312.5,222.5 C 311.732,223.263 311.232,224.263 311,225.5C 307.268,221.938 303.768,218.271 300.5,214.5C 300.121,209.703 300.621,205.036 302,200.5C 305.696,197.575 309.029,197.908 312,201.5C 312.5,208.492 312.666,215.492 312.5,222.5 Z"/></g>
<g><path style="opacity:0.972" fill="#ad42f4" d="M 61.5,202.5 C 63.1992,202.34 64.8659,202.506 66.5,203C 75.4255,211.421 83.7588,220.254 91.5,229.5C 84.0643,224.578 76.7309,219.411 69.5,214C 63.5092,213.501 57.5092,213.334 51.5,213.5C 49.1074,209.598 46.1074,206.098 42.5,203C 48.8246,202.5 55.1579,202.334 61.5,202.5 Z"/></g>
<g><path style="opacity:0.971" fill="#8268ed" d="M 225.5,200.5 C 225.389,201.117 225.056,201.617 224.5,202C 227.371,204.703 230.038,207.536 232.5,210.5C 223.601,212.607 216.935,217.607 212.5,225.5C 209.767,222.761 206.767,220.427 203.5,218.5C 208.113,209.224 215.447,203.224 225.5,200.5 Z"/></g>
<g><path style="opacity:0.969" fill="#9656f0" d="M 143.5,182.5 C 149.068,185.387 152.734,189.721 154.5,195.5C 154.5,210.167 154.5,224.833 154.5,239.5C 150.833,236.167 147.167,232.833 143.5,229.5C 143.5,213.833 143.5,198.167 143.5,182.5 Z"/></g>
<g><path style="opacity:0.969" fill="#578be8" d="M 356.5,196.5 C 361.801,200.106 365.468,204.772 367.5,210.5C 367.5,217.167 367.5,223.833 367.5,230.5C 363.833,227.167 360.167,223.833 356.5,220.5C 356.5,212.5 356.5,204.5 356.5,196.5 Z"/></g>
<g><path style="opacity:0.984" fill="#a648f2" d="M 61.5,202.5 C 61.5,202.167 61.5,201.833 61.5,201.5C 65.9362,201.21 70.2695,201.71 74.5,203C 81.5,208 88.5,213 95.5,218C 106.93,218.043 118.263,218.71 129.5,220C 132.333,223.663 132,226.996 128.5,230C 115.993,230.827 103.66,230.66 91.5,229.5C 83.7588,220.254 75.4255,211.421 66.5,203C 64.8659,202.506 63.1992,202.34 61.5,202.5 Z"/></g>
<g><path style="opacity:0.955" fill="#4f93e7" d="M 413.5,212.5 C 408.684,213.326 403.684,213.826 398.5,214C 402.037,217.369 405.371,220.869 408.5,224.5C 399.827,224.666 391.16,224.5 382.5,224C 379.713,221.833 378.88,218.999 380,215.5C 380.903,214.299 382.069,213.465 383.5,213C 393.494,212.5 403.494,212.334 413.5,212.5 Z"/></g>
<g><path style="opacity:0.965" fill="#4899e6" d="M 413.5,212.5 C 416.271,212.421 418.937,212.921 421.5,214C 429.865,221.174 438.198,228.341 446.5,235.5C 449.573,237.569 451.906,240.236 453.5,243.5C 451.539,245.963 449.372,248.297 447,250.5C 446.517,251.448 446.351,252.448 446.5,253.5C 442.5,251.5 439.5,248.5 437.5,244.5C 430.658,237.494 423.325,230.994 415.5,225C 413.19,224.503 410.857,224.337 408.5,224.5C 405.371,220.869 402.037,217.369 398.5,214C 403.684,213.826 408.684,213.326 413.5,212.5 Z"/></g>
<g><path style="opacity:0.965" fill="#6d79eb" d="M 300.5,214.5 C 303.768,218.271 307.268,221.938 311,225.5C 311.232,224.263 311.732,223.263 312.5,222.5C 312.5,230.5 312.5,238.5 312.5,246.5C 311.778,246.918 311.278,247.584 311,248.5C 308,245.5 305,242.5 302,239.5C 301.823,235.644 301.323,231.977 300.5,228.5C 300.5,223.833 300.5,219.167 300.5,214.5 Z"/></g>
<g><path style="opacity:0.964" fill="#5f85e9" d="M 356.5,220.5 C 360.167,223.833 363.833,227.167 367.5,230.5C 367.5,240.5 367.5,250.5 367.5,260.5C 364.203,257.704 361.036,254.704 358,251.5C 357.722,252.416 357.222,253.082 356.5,253.5C 356.5,242.5 356.5,231.5 356.5,220.5 Z"/></g>
<g><path style="opacity:0.964" fill="#429ee5" d="M 472.5,261.5 C 470.14,258.473 467.473,255.806 464.5,253.5C 463.221,249.698 460.888,246.531 457.5,244C 456.207,243.51 454.873,243.343 453.5,243.5C 451.906,240.236 449.573,237.569 446.5,235.5C 447.343,233.827 448.676,232.66 450.5,232C 454.625,231.146 458.625,231.48 462.5,233C 467.367,237.532 471.867,242.366 476,247.5C 476.667,250.833 476.667,254.167 476,257.5C 475.34,259.324 474.173,260.657 472.5,261.5 Z"/></g>
<g><path style="opacity:0.985" fill="#ba37f6" d="M 74.5,265.5 C 71.5361,263.038 68.7028,260.371 66,257.5C 65.7216,258.416 65.2216,259.082 64.5,259.5C 62.2567,255.585 59.2567,252.251 55.5,249.5C 52.4802,252.189 49.4802,254.856 46.5,257.5C 43.5,255.167 40.8333,252.5 38.5,249.5C 41.6293,245.869 44.9626,242.369 48.5,239C 52.3749,237.48 56.3749,237.146 60.5,238C 65.6344,242.133 70.4677,246.633 75,251.5C 77.1381,256.381 76.9714,261.048 74.5,265.5 Z"/></g>
<g><path style="opacity:0.957" fill="#7374ec" d="M 300.5,228.5 C 301.323,231.977 301.823,235.644 302,239.5C 305,242.5 308,245.5 311,248.5C 311.278,247.584 311.778,246.918 312.5,246.5C 312.5,254.5 312.5,262.5 312.5,270.5C 309.232,266.729 305.732,263.062 302,259.5C 301.817,256.635 301.317,253.969 300.5,251.5C 300.5,243.833 300.5,236.167 300.5,228.5 Z"/></g>
<g><path style="opacity:0.961" fill="#8e5def" d="M 203.5,218.5 C 206.767,220.427 209.767,222.761 212.5,225.5C 210.671,235.379 210.004,245.379 210.5,255.5C 221.167,255.5 231.833,255.5 242.5,255.5C 245.833,259.167 249.167,262.833 252.5,266.5C 238.5,266.5 224.5,266.5 210.5,266.5C 210.5,270.833 210.5,275.167 210.5,279.5C 209.681,276.695 209.181,273.695 209,270.5C 205.631,266.963 202.131,263.629 198.5,260.5C 198.334,250.828 198.5,241.161 199,231.5C 199.635,226.757 201.135,222.424 203.5,218.5 Z"/></g>
<g><path style="opacity:0.917" fill="#aa45f3" d="M 92.5,243.5 C 104.505,243.333 116.505,243.5 128.5,244C 131.287,246.167 132.12,249.001 131,252.5C 130.097,253.701 128.931,254.535 127.5,255C 116.167,255.667 104.833,255.667 93.5,255C 89.7084,252.947 88.5418,249.781 90,245.5C 90.9947,244.934 91.828,244.267 92.5,243.5 Z"/></g>
<g><path style="opacity:0.98" fill="#4b96e6" d="M 437.5,244.5 C 439.5,248.5 442.5,251.5 446.5,253.5C 449.48,256.144 452.48,258.811 455.5,261.5C 458.52,258.811 461.52,256.144 464.5,253.5C 467.473,255.806 470.14,258.473 472.5,261.5C 469.371,265.131 466.037,268.631 462.5,272C 458.625,273.52 454.625,273.854 450.5,273C 444.667,268.5 439.5,263.333 435,257.5C 434.333,254.167 434.333,250.833 435,247.5C 435.377,246.058 436.21,245.058 437.5,244.5 Z"/></g>
<g><path style="opacity:0.951" fill="#c42ff7" d="M 38.5,249.5 C 40.8333,252.5 43.5,255.167 46.5,257.5C 47.7786,261.302 50.1119,264.469 53.5,267C 54.448,267.483 55.448,267.649 56.5,267.5C 58.8333,270.5 61.5,273.167 64.5,275.5C 63.657,277.173 62.3237,278.34 60.5,279C 56.3749,279.854 52.3749,279.52 48.5,278C 43.6329,273.468 39.1329,268.634 35,263.5C 34.3333,260.167 34.3333,256.833 35,253.5C 35.66,251.676 36.8267,250.343 38.5,249.5 Z"/></g>
<g><path style="opacity:0.974" fill="#667fe9" d="M 367.5,260.5 C 367.5,267.5 367.5,274.5 367.5,281.5C 363.833,278.167 360.167,274.833 356.5,271.5C 356.5,265.5 356.5,259.5 356.5,253.5C 357.222,253.082 357.722,252.416 358,251.5C 361.036,254.704 364.203,257.704 367.5,260.5 Z"/></g>
<g><path style="opacity:0.985" fill="#8366ee" d="M 264.5,251.5 C 267.806,255.473 271.473,259.14 275.5,262.5C 275.5,271.167 275.5,279.833 275.5,288.5C 271.833,285.167 268.167,281.833 264.5,278.5C 264.5,274.5 264.5,270.5 264.5,266.5C 260.5,266.5 256.5,266.5 252.5,266.5C 249.167,262.833 245.833,259.167 242.5,255.5C 249.833,255.5 257.167,255.5 264.5,255.5C 264.5,254.167 264.5,252.833 264.5,251.5 Z"/></g>
<g><path style="opacity:0.952" fill="#5a89e8" d="M 383.5,255.5 C 394.838,255.333 406.172,255.5 417.5,256C 421.292,258.053 422.458,261.219 421,265.5C 420.25,266.126 419.416,266.626 418.5,267C 406.5,267.667 394.5,267.667 382.5,267C 378.297,262.731 378.63,258.897 383.5,255.5 Z"/></g>
<g><path style="opacity:0.926" fill="#be34f6" d="M 74.5,265.5 C 74.3893,266.117 74.056,266.617 73.5,267C 80.5382,273.707 87.8716,280.04 95.5,286C 96.448,286.483 97.448,286.649 98.5,286.5C 98.0825,287.222 97.4158,287.722 96.5,288C 99.5,291 102.5,294 105.5,297C 108.365,297.183 111.031,297.683 113.5,298.5C 105.415,298.901 97.4148,298.401 89.5,297C 81.1354,289.826 72.8021,282.659 64.5,275.5C 61.5,273.167 58.8333,270.5 56.5,267.5C 59.5,265.167 62.1667,262.5 64.5,259.5C 65.2216,259.082 65.7216,258.416 66,257.5C 68.7028,260.371 71.5361,263.038 74.5,265.5 Z"/></g>
<g><path style="opacity:0.977" fill="#a34bf2" d="M 143.5,229.5 C 147.167,232.833 150.833,236.167 154.5,239.5C 154.5,252.167 154.5,264.833 154.5,277.5C 153.732,278.263 153.232,279.263 153,280.5C 149.964,277.296 146.797,274.296 143.5,271.5C 143.5,257.5 143.5,243.5 143.5,229.5 Z"/></g>
<g><path style="opacity:0.938" fill="#7a6eec" d="M 300.5,251.5 C 301.317,253.969 301.817,256.635 302,259.5C 305.732,263.062 309.232,266.729 312.5,270.5C 312.5,280.167 312.5,289.833 312.5,299.5C 308.869,296.371 305.369,293.037 302,289.5C 301.821,293.025 301.321,296.359 300.5,299.5C 300.5,283.5 300.5,267.5 300.5,251.5 Z"/></g>
<g><path style="opacity:0.966" fill="#6d79eb" d="M 356.5,271.5 C 360.167,274.833 363.833,278.167 367.5,281.5C 367.5,289.167 367.5,296.833 367.5,304.5C 364.105,301.098 360.438,298.098 356.5,295.5C 356.5,287.5 356.5,279.5 356.5,271.5 Z"/></g>
<g><path style="opacity:0.912" fill="#6084e9" d="M 411.5,280.5 C 411.082,281.222 410.416,281.722 409.5,282C 416.062,288.031 421.729,294.198 426.5,300.5C 422.862,298.01 419.195,295.51 415.5,293C 404.833,292.667 394.167,292.333 383.5,292C 379.708,289.947 378.542,286.781 380,282.5C 380.75,281.874 381.584,281.374 382.5,281C 392.161,280.5 401.828,280.334 411.5,280.5 Z"/></g>
<g><path style="opacity:0.958" fill="#5a8ae8" d="M 411.5,280.5 C 414.187,280.336 416.854,280.503 419.5,281C 426.45,285.615 433.116,290.615 439.5,296C 441.345,297.128 443.345,297.628 445.5,297.5C 448.629,301.131 451.963,304.631 455.5,308C 459.025,308.179 462.359,308.679 465.5,309.5C 456.827,309.666 448.16,309.5 439.5,309C 434.451,307.15 430.117,304.316 426.5,300.5C 421.729,294.198 416.062,288.031 409.5,282C 410.416,281.722 411.082,281.222 411.5,280.5 Z"/></g>
<g><path style="opacity:0.963" fill="#4799e5" d="M 511.5,291.5 C 511.5,299.5 511.5,307.5 511.5,315.5C 510.194,317.473 508.527,319.139 506.5,320.5C 503.101,318.612 500.101,316.112 497.5,313C 492.981,312.825 488.647,312.325 484.5,311.5C 489.762,311.805 494.928,311.471 500,310.5C 500.667,305.5 500.667,300.5 500,295.5C 493.959,293.907 488.126,294.24 482.5,296.5C 479.233,294.573 476.233,292.239 473.5,289.5C 474.359,286.548 476.359,284.715 479.5,284C 487.833,282 496.167,282 504.5,284C 507.746,285.742 510.079,288.242 511.5,291.5 Z"/></g>
<g><path style="opacity:0.925" fill="#9d50f1" d="M 198.5,260.5 C 202.131,263.629 205.631,266.963 209,270.5C 209.181,273.695 209.681,276.695 210.5,279.5C 210.666,289.172 210.5,298.839 210,308.5C 206.74,313.285 203.073,313.619 199,309.5C 198.5,293.17 198.333,276.837 198.5,260.5 Z"/></g>
<g><path style="opacity:0.958" fill="#b73af5" d="M 98.5,286.5 C 108.886,286.191 119.219,286.524 129.5,287.5C 132.122,290.703 132.122,293.87 129.5,297C 124.264,298.339 118.93,298.839 113.5,298.5C 111.031,297.683 108.365,297.183 105.5,297C 102.5,294 99.5,291 96.5,288C 97.4158,287.722 98.0825,287.222 98.5,286.5 Z"/></g>
<g><path style="opacity:0.961" fill="#8b5fef" d="M 264.5,278.5 C 268.167,281.833 271.833,285.167 275.5,288.5C 275.666,295.841 275.5,303.174 275,310.5C 271.304,313.425 267.971,313.092 265,309.5C 264.5,299.172 264.334,288.839 264.5,278.5 Z"/></g>
<g><path style="opacity:0.97" fill="#8267ee" d="M 312.5,299.5 C 312.665,302.85 312.498,306.183 312,309.5C 309.029,313.092 305.696,313.425 302,310.5C 300.663,306.974 300.163,303.308 300.5,299.5C 301.321,296.359 301.821,293.025 302,289.5C 305.369,293.037 308.869,296.371 312.5,299.5 Z"/></g>
<g><path style="opacity:0.985" fill="#4f93e7" d="M 473.5,289.5 C 476.233,292.239 479.233,294.573 482.5,296.5C 482.334,301.179 482.501,305.845 483,310.5C 483.383,311.056 483.883,311.389 484.5,311.5C 488.647,312.325 492.981,312.825 497.5,313C 500.101,316.112 503.101,318.612 506.5,320.5C 503.032,323.114 499.032,324.114 494.5,323.5C 493.048,322.698 491.382,322.198 489.5,322C 481.833,314.333 474.167,306.667 466.5,299C 467.737,298.768 468.737,298.268 469.5,297.5C 471.047,295.032 472.38,292.365 473.5,289.5 Z"/></g>
<g><path style="opacity:0.995" fill="#538fe7" d="M 445.5,297.5 C 453.5,297.5 461.5,297.5 469.5,297.5C 468.737,298.268 467.737,298.768 466.5,299C 474.167,306.667 481.833,314.333 489.5,322C 491.382,322.198 493.048,322.698 494.5,323.5C 488.238,324.128 482.238,323.295 476.5,321C 473.051,317.935 471.384,314.102 471.5,309.5C 469.5,309.5 467.5,309.5 465.5,309.5C 462.359,308.679 459.025,308.179 455.5,308C 451.963,304.631 448.629,301.131 445.5,297.5 Z"/></g>
<g><path style="opacity:0.981" fill="#b13ff4" d="M 143.5,271.5 C 146.797,274.296 149.964,277.296 153,280.5C 153.232,279.263 153.732,278.263 154.5,277.5C 154.5,297.833 154.5,318.167 154.5,338.5C 150.833,335.167 147.167,331.833 143.5,328.5C 143.5,309.5 143.5,290.5 143.5,271.5 Z"/></g>
<g><path style="opacity:0.957" fill="#cb29f8" d="M 54.5,306.5 C 60.2617,306.149 65.9284,306.649 71.5,308C 76.0631,310.959 78.0631,315.126 77.5,320.5C 80.1667,320.5 82.8333,320.5 85.5,320.5C 90.9954,323.313 95.6621,327.313 99.5,332.5C 91.9809,332.175 84.6476,332.508 77.5,333.5C 74.1383,329.804 70.4716,326.47 66.5,323.5C 66.8799,321.302 66.2132,319.635 64.5,318.5C 59.7495,315.59 55.4161,312.09 51.5,308C 52.7375,307.768 53.7375,307.268 54.5,306.5 Z"/></g>
<g><path style="opacity:0.938" fill="#6084e9" d="M 453.5,346.5 C 450.5,343.833 447.5,341.167 444.5,338.5C 444.5,335.833 444.5,333.167 444.5,330.5C 441.833,330.5 439.167,330.5 436.5,330.5C 434.167,327.5 431.5,324.833 428.5,322.5C 429.058,321.21 430.058,320.377 431.5,320C 451.292,315.131 459.459,322.631 456,342.5C 455.392,344.066 454.558,345.4 453.5,346.5 Z"/></g>
<g><path style="opacity:0.983" fill="#7770ec" d="M 356.5,295.5 C 360.438,298.098 364.105,301.098 367.5,304.5C 367.5,318.833 367.5,333.167 367.5,347.5C 365.024,342.341 361.357,338.008 356.5,334.5C 356.5,321.5 356.5,308.5 356.5,295.5 Z"/></g>
<g><path style="opacity:0.944" fill="#c131f5" d="M 85.5,320.5 C 100.264,320.033 114.93,320.533 129.5,322C 131.478,324.497 131.978,327.331 131,330.5C 130.25,331.126 129.416,331.626 128.5,332C 118.839,332.5 109.172,332.666 99.5,332.5C 95.6621,327.313 90.9954,323.313 85.5,320.5 Z"/></g>
<g><path style="opacity:0.957" fill="#667fea" d="M 428.5,322.5 C 431.5,324.833 434.167,327.5 436.5,330.5C 439.167,330.5 441.833,330.5 444.5,330.5C 444.5,333.167 444.5,335.833 444.5,338.5C 447.5,341.167 450.5,343.833 453.5,346.5C 452.251,348.136 450.584,349.303 448.5,350C 443.167,350.667 437.833,350.667 432.5,350C 428.403,348.078 426.07,344.912 425.5,340.5C 422.167,336.833 418.833,333.167 415.5,329.5C 418.833,329.5 422.167,329.5 425.5,329.5C 425.166,326.509 426.166,324.176 428.5,322.5 Z"/></g>
<g><path style="opacity:0.984" fill="#d520f9" d="M 54.5,306.5 C 53.7375,307.268 52.7375,307.768 51.5,308C 55.4161,312.09 59.7495,315.59 64.5,318.5C 59.4889,318.334 54.4889,318.501 49.5,319C 48.3651,323.748 48.1985,328.581 49,333.5C 51.5539,334.771 54.3872,335.438 57.5,335.5C 60.1667,335.333 62.8333,335.167 65.5,335C 66.4601,331.27 66.7935,327.437 66.5,323.5C 70.4716,326.47 74.1383,329.804 77.5,333.5C 77.6294,339.077 75.296,343.244 70.5,346C 40.8569,353.021 30.3569,341.855 39,312.5C 43.0172,307.576 48.1839,305.576 54.5,306.5 Z"/></g>
<g><path style="opacity:0.978" fill="#6f78eb" d="M 415.5,329.5 C 418.833,333.167 422.167,336.833 425.5,340.5C 411.163,340.667 396.829,340.5 382.5,340C 381.584,339.626 380.75,339.126 380,338.5C 379.022,335.331 379.522,332.497 381.5,330C 392.828,329.5 404.162,329.333 415.5,329.5 Z"/></g>
<g><path style="opacity:0.958" fill="#bd35f6" d="M 143.5,328.5 C 147.167,331.833 150.833,335.167 154.5,338.5C 154.833,350.167 160.833,356.167 172.5,356.5C 175.833,360.167 179.167,363.833 182.5,367.5C 153.167,370.833 140.167,357.833 143.5,328.5 Z"/></g>
<g><path style="opacity:0.967" fill="#8169ee" d="M 356.5,334.5 C 361.357,338.008 365.024,342.341 367.5,347.5C 366.085,352.674 363.419,357.007 359.5,360.5C 356.792,357.791 353.792,355.458 350.5,353.5C 355.294,348.116 357.294,341.782 356.5,334.5 Z"/></g>
<g><path style="opacity:0.96" fill="#cc28f8" d="M 93.5,369.5 C 89.689,367.099 87.3557,364.099 86.5,360.5C 87.6728,358.496 89.3395,356.996 91.5,356C 103.833,355.333 116.167,355.333 128.5,356C 129.416,356.374 130.25,356.874 131,357.5C 132.718,362.385 131.218,365.551 126.5,367C 116.167,367.333 105.833,367.667 95.5,368C 94.9558,368.717 94.2891,369.217 93.5,369.5 Z"/></g>
<g><path style="opacity:0.968" fill="#7a6ded" d="M 394.5,355.5 C 397.434,359.773 400.767,363.773 404.5,367.5C 397.825,367.666 391.158,367.5 384.5,367C 382.671,366.727 381.171,365.893 380,364.5C 379.231,361.901 379.398,359.401 380.5,357C 385.036,355.621 389.703,355.121 394.5,355.5 Z"/></g>
<g><path style="opacity:0.954" fill="#7273ec" d="M 394.5,355.5 C 402.84,355.334 411.173,355.5 419.5,356C 427.671,363.005 435.338,370.505 442.5,378.5C 441.957,378.56 441.624,378.893 441.5,379.5C 445.188,382.521 448.521,385.854 451.5,389.5C 446.489,389.666 441.489,389.499 436.5,389C 429.5,382 422.5,375 415.5,368C 411.848,367.501 408.182,367.335 404.5,367.5C 400.767,363.773 397.434,359.773 394.5,355.5 Z"/></g>
<g><path style="opacity:0.97" fill="#b040f4" d="M 172.5,356.5 C 188.5,356.5 204.5,356.5 220.5,356.5C 223.833,360.167 227.167,363.833 230.5,367.5C 214.5,367.5 198.5,367.5 182.5,367.5C 179.167,363.833 175.833,360.167 172.5,356.5 Z"/></g>
<g><path style="opacity:0.97" fill="#a648f2" d="M 220.5,356.5 C 230.5,356.5 240.5,356.5 250.5,356.5C 253.833,360.167 257.167,363.833 260.5,367.5C 250.5,367.5 240.5,367.5 230.5,367.5C 227.167,363.833 223.833,360.167 220.5,356.5 Z"/></g>
<g><path style="opacity:0.97" fill="#9a52f1" d="M 250.5,356.5 C 265.5,356.5 280.5,356.5 295.5,356.5C 298.833,360.167 302.167,363.833 305.5,367.5C 290.5,367.5 275.5,367.5 260.5,367.5C 257.167,363.833 253.833,360.167 250.5,356.5 Z"/></g>
<g><path style="opacity:0.97" fill="#915af0" d="M 295.5,356.5 C 303.5,356.5 311.5,356.5 319.5,356.5C 322.833,360.167 326.167,363.833 329.5,367.5C 321.5,367.5 313.5,367.5 305.5,367.5C 302.167,363.833 298.833,360.167 295.5,356.5 Z"/></g>
<g><path style="opacity:0.954" fill="#8962ee" d="M 350.5,353.5 C 353.792,355.458 356.792,357.791 359.5,360.5C 356.525,363.661 352.858,365.828 348.5,367C 342.175,367.5 335.842,367.666 329.5,367.5C 326.167,363.833 322.833,360.167 319.5,356.5C 327.507,356.666 335.507,356.5 343.5,356C 345.854,355.153 348.188,354.32 350.5,353.5 Z"/></g>
<g><path style="opacity:0.959" fill="#ea0efc" d="M 19.5,363.5 C 20.9516,364.302 22.6183,364.802 24.5,365C 32.7024,373.035 40.7024,381.202 48.5,389.5C 45.5,389.5 42.5,389.5 39.5,389.5C 39.9763,393.378 38.9763,396.712 36.5,399.5C 34.5698,395.9 31.9031,392.9 28.5,390.5C 28.7768,385.767 28.4435,381.1 27.5,376.5C 22.544,375.506 17.544,375.173 12.5,375.5C 10.1667,372.167 7.83333,368.833 5.5,365.5C 9.96646,363.785 14.6331,363.118 19.5,363.5 Z"/></g>
<g><path style="opacity:0.936" fill="#5f85e9" d="M 511.5,371.5 C 511.5,379.833 511.5,388.167 511.5,396.5C 510.194,398.473 508.527,400.139 506.5,401.5C 504.573,398.233 502.239,395.233 499.5,392.5C 500.811,387 500.811,381.5 499.5,376C 493.751,375.215 488.084,375.382 482.5,376.5C 480.167,373.5 477.5,370.833 474.5,368.5C 476.12,366.016 478.453,364.516 481.5,364C 488.167,363.333 494.833,363.333 501.5,364C 505.869,365.213 509.203,367.713 511.5,371.5 Z"/></g>
<g><path style="opacity:0.945" fill="#667fea" d="M 474.5,368.5 C 477.5,370.833 480.167,373.5 482.5,376.5C 482.195,381.762 482.529,386.928 483.5,392C 488.823,392.499 494.156,392.666 499.5,392.5C 502.239,395.233 504.573,398.233 506.5,401.5C 505.158,402.793 503.491,403.626 501.5,404C 497.514,404.499 493.514,404.666 489.5,404.5C 481.167,395.833 472.833,387.167 464.5,378.5C 466.833,378.5 469.167,378.5 471.5,378.5C 471.024,374.622 472.024,371.288 474.5,368.5 Z"/></g>
<g><path style="opacity:0.95" fill="#dd1afa" d="M 86.5,360.5 C 87.3557,364.099 89.689,367.099 93.5,369.5C 87.3694,376.131 81.036,382.631 74.5,389C 73.552,389.483 72.552,389.649 71.5,389.5C 68.1667,385.833 64.8333,382.167 61.5,378.5C 63.8568,378.663 66.1902,378.497 68.5,378C 74.3686,371.964 80.3686,366.13 86.5,360.5 Z"/></g>
<g><path style="opacity:0.972" fill="#e413fb" d="M 19.5,363.5 C 24.742,363.023 29.742,363.856 34.5,366C 38.2482,369.33 39.9149,373.497 39.5,378.5C 46.8333,378.5 54.1667,378.5 61.5,378.5C 64.8333,382.167 68.1667,385.833 71.5,389.5C 63.8333,389.5 56.1667,389.5 48.5,389.5C 40.7024,381.202 32.7024,373.035 24.5,365C 22.6183,364.802 20.9516,364.302 19.5,363.5 Z"/></g>
<g><path style="opacity:0.955" fill="#6c7aeb" d="M 442.5,378.5 C 449.833,378.5 457.167,378.5 464.5,378.5C 472.833,387.167 481.167,395.833 489.5,404.5C 477.946,405.934 471.946,400.934 471.5,389.5C 464.833,389.5 458.167,389.5 451.5,389.5C 448.521,385.854 445.188,382.521 441.5,379.5C 441.624,378.893 441.957,378.56 442.5,378.5 Z"/></g>
<g><path style="opacity:0.966" fill="#8b60ee" d="M 367.5,414.5 C 366.677,411.023 366.177,407.356 366,403.5C 362.631,399.963 359.131,396.629 355.5,393.5C 355.133,389.033 355.633,384.7 357,380.5C 360.24,378.964 363.24,379.297 366,381.5C 367.431,392.422 367.931,403.422 367.5,414.5 Z"/></g>
<g><path style="opacity:0.931" fill="#f306fd" d="M 5.5,365.5 C 7.83333,368.833 10.1667,372.167 12.5,375.5C 11.8826,375.611 11.3826,375.944 11,376.5C 10.1963,381.751 10.363,386.918 11.5,392C 17.4553,393.042 23.122,392.542 28.5,390.5C 31.9031,392.9 34.5698,395.9 36.5,399.5C 34.8802,401.984 32.5469,403.484 29.5,404C 22.8333,404.667 16.1667,404.667 9.5,404C 5.13051,402.787 1.79717,400.287 -0.5,396.5C -0.5,388.167 -0.5,379.833 -0.5,371.5C 1.13942,369.194 3.13942,367.194 5.5,365.5 Z"/></g>
<g><path style="opacity:1" fill="#af41f3" d="M 246.5,379.5 C 250.49,378.616 253.323,379.949 255,383.5C 255.667,394.833 255.667,406.167 255,417.5C 252.947,421.292 249.781,422.458 245.5,421C 244.874,420.25 244.374,419.416 244,418.5C 243.333,406.5 243.333,394.5 244,382.5C 244.698,381.309 245.531,380.309 246.5,379.5 Z"/></g>
<g><path style="opacity:0.969" fill="#c42ff6" d="M 181.5,417.5 C 177.833,414.167 174.167,410.833 170.5,407.5C 170.334,398.827 170.5,390.16 171,381.5C 174.333,378.833 177.667,378.833 181,381.5C 181.5,393.495 181.667,405.495 181.5,417.5 Z"/></g>
<g><path style="opacity:0.965" fill="#9755f0" d="M 332.5,417.5 C 328.817,413.82 324.817,410.486 320.5,407.5C 320.334,399.493 320.5,391.493 321,383.5C 323.053,379.708 326.219,378.542 330.5,380C 331.126,380.75 331.626,381.584 332,382.5C 332.5,394.162 332.667,405.829 332.5,417.5 Z"/></g>
<g><path style="opacity:0.964" fill="#b63af5" d="M 229.5,419.5 C 225.933,417.443 222.766,414.777 220,411.5C 219.768,412.737 219.268,413.737 218.5,414.5C 218.334,404.161 218.5,393.828 219,383.5C 221.053,379.708 224.219,378.542 228.5,380C 229.126,380.75 229.626,381.584 230,382.5C 230.827,395.007 230.66,407.34 229.5,419.5 Z"/></g>
<g><path style="opacity:0.956" fill="#9359f0" d="M 355.5,393.5 C 359.131,396.629 362.631,399.963 366,403.5C 366.177,407.356 366.677,411.023 367.5,414.5C 374.464,421.965 381.631,429.298 389,436.5C 389.499,441.489 389.666,446.489 389.5,451.5C 385.773,447.767 381.773,444.434 377.5,441.5C 369.838,434.671 362.671,427.338 356,419.5C 355.5,410.84 355.334,402.173 355.5,393.5 Z"/></g>
<g><path style="opacity:0.961" fill="#a54af2" d="M 291.5,427.5 C 288.5,425.167 285.833,422.5 283.5,419.5C 283.685,417.804 284.519,416.471 286,415.5C 286.333,404.5 286.667,393.5 287,382.5C 289.167,379.713 292.001,378.88 295.5,380C 296.701,380.903 297.535,382.069 298,383.5C 298.667,395.167 298.667,406.833 298,418.5C 296.386,421.94 294.22,424.94 291.5,427.5 Z"/></g>
<g><path style="opacity:0.972" fill="#ce26f8" d="M 149.5,425.5 C 146.527,423.194 143.86,420.527 141.5,417.5C 141.783,416.711 142.283,416.044 143,415.5C 143.333,405.167 143.667,394.833 144,384.5C 145.449,379.782 148.615,378.282 153.5,380C 154.126,380.75 154.626,381.584 155,382.5C 155.667,394.833 155.667,407.167 155,419.5C 153.669,421.996 151.836,423.996 149.5,425.5 Z"/></g>
<g><path style="opacity:0.962" fill="#cc28f8" d="M 170.5,407.5 C 174.167,410.833 177.833,414.167 181.5,417.5C 181.5,420.167 181.5,422.833 181.5,425.5C 185.684,425.844 188.851,427.844 191,431.5C 191.819,437.681 191.653,443.681 190.5,449.5C 187.167,446.5 183.833,443.5 180.5,440.5C 180.5,439.167 180.5,437.833 180.5,436.5C 179.167,436.5 177.833,436.5 176.5,436.5C 173.5,433.167 170.5,429.833 167.5,426.5C 168.209,425.596 169.209,425.263 170.5,425.5C 170.5,419.5 170.5,413.5 170.5,407.5 Z"/></g>
<g><path style="opacity:0.909" fill="#9f4ef2" d="M 320.5,407.5 C 324.817,410.486 328.817,413.82 332.5,417.5C 332.5,422.833 332.5,428.167 332.5,433.5C 341.55,433.22 346.55,437.553 347.5,446.5C 346.691,448.292 346.191,450.292 346,452.5C 338,444.5 330,436.5 322,428.5C 321.722,429.416 321.222,430.082 320.5,430.5C 320.5,422.833 320.5,415.167 320.5,407.5 Z"/></g>
<g><path style="opacity:0.942" fill="#c330f6" d="M 229.5,419.5 C 225.297,426.55 220.464,433.216 215,439.5C 213.711,442.351 213.211,445.351 213.5,448.5C 211.362,443.678 208.028,439.678 203.5,436.5C 208.474,429.185 213.474,421.851 218.5,414.5C 219.268,413.737 219.768,412.737 220,411.5C 222.766,414.777 225.933,417.443 229.5,419.5 Z"/></g>
<g><path style="opacity:0.949" fill="#d322f9" d="M 167.5,426.5 C 170.5,429.833 173.5,433.167 176.5,436.5C 175.167,436.5 173.833,436.5 172.5,436.5C 172.5,439.167 172.5,441.833 172.5,444.5C 175.167,444.5 177.833,444.5 180.5,444.5C 180.5,443.167 180.5,441.833 180.5,440.5C 183.833,443.5 187.167,446.5 190.5,449.5C 189.316,452.849 186.983,455.015 183.5,456C 164.126,459.625 156.626,451.792 161,432.5C 162.406,429.591 164.572,427.591 167.5,426.5 Z"/></g>
<g><path style="opacity:0.95" fill="#dc1afa" d="M 141.5,417.5 C 143.86,420.527 146.527,423.194 149.5,425.5C 144.203,431.298 138.703,436.965 133,442.5C 132.503,444.81 132.337,447.143 132.5,449.5C 128.833,446.167 125.167,442.833 121.5,439.5C 121.351,438.448 121.517,437.448 122,436.5C 128.369,429.964 134.869,423.631 141.5,417.5 Z"/></g>
<g><path style="opacity:0.979" fill="#a549f2" d="M 347.5,446.5 C 347.666,451.511 347.499,456.511 347,461.5C 346.528,465.11 345.028,468.11 342.5,470.5C 339.862,467.526 337.195,464.526 334.5,461.5C 335.825,456.099 335.825,450.599 334.5,445C 329.5,444.333 324.5,444.333 319.5,445C 318.531,449.737 318.197,454.57 318.5,459.5C 317.691,457.708 317.191,455.708 317,453.5C 313.227,450.236 310.06,446.57 307.5,442.5C 309.33,436.018 313.663,433.018 320.5,433.5C 320.5,432.5 320.5,431.5 320.5,430.5C 321.222,430.082 321.722,429.416 322,428.5C 330,436.5 338,444.5 346,452.5C 346.191,450.292 346.691,448.292 347.5,446.5 Z"/></g>
<g><path style="opacity:0.968" fill="#b53cf4" d="M 283.5,419.5 C 285.833,422.5 288.5,425.167 291.5,427.5C 286.376,433.795 281.043,439.961 275.5,446C 279.305,450.091 280.472,454.924 279,460.5C 278.722,461.416 278.222,462.082 277.5,462.5C 269.167,453.5 260.5,444.833 251.5,436.5C 253.462,434.983 255.795,434.316 258.5,434.5C 261.861,434.112 264.694,435.112 267,437.5C 272.366,431.304 277.866,425.304 283.5,419.5 Z"/></g>
<g><path style="opacity:0.969" fill="#e413fb" d="M 121.5,439.5 C 125.167,442.833 128.833,446.167 132.5,449.5C 132.5,456.833 132.5,464.167 132.5,471.5C 142.963,471.631 147.963,476.965 147.5,487.5C 138.833,479.167 130.167,470.833 121.5,462.5C 121.5,454.833 121.5,447.167 121.5,439.5 Z"/></g>
<g><path style="opacity:0.948" fill="#bf34f6" d="M 251.5,436.5 C 260.5,444.833 269.167,453.5 277.5,462.5C 273.336,467.497 268.669,471.997 263.5,476C 259.375,476.854 255.375,476.52 251.5,475C 247.333,470.833 243.167,466.667 239,462.5C 237,457.833 237,453.167 239,448.5C 243.036,444.296 247.202,440.296 251.5,436.5 Z M 257.5,446.5 C 270.09,451.521 270.59,457.521 259,464.5C 255.366,462.033 252.199,459.033 249.5,455.5C 252.189,452.48 254.856,449.48 257.5,446.5 Z"/></g>
<g><path style="opacity:0.955" fill="#9953f1" d="M 377.5,441.5 C 381.773,444.434 385.773,447.767 389.5,451.5C 389.5,458.167 389.5,464.833 389.5,471.5C 399.963,471.631 404.963,476.965 404.5,487.5C 403.883,487.611 403.383,487.944 403,488.5C 394.965,480.298 386.798,472.298 378.5,464.5C 378.799,456.747 378.466,449.08 377.5,441.5 Z"/></g>
<g><path style="opacity:0.969" fill="#ad42f3" d="M 307.5,442.5 C 310.06,446.57 313.227,450.236 317,453.5C 317.191,455.708 317.691,457.708 318.5,459.5C 318.414,460.496 318.748,461.329 319.5,462C 324.584,462.778 329.584,462.611 334.5,461.5C 337.195,464.526 339.862,467.526 342.5,470.5C 341.4,471.558 340.066,472.392 338.5,473C 311.558,479.223 301.224,469.057 307.5,442.5 Z"/></g>
<g><path style="opacity:0.944" fill="#ea0efc" d="M 121.5,462.5 C 130.167,470.833 138.833,479.167 147.5,487.5C 147.666,492.179 147.499,496.845 147,501.5C 146.576,504.025 145.41,506.025 143.5,507.5C 142.005,503.327 139.338,499.994 135.5,497.5C 135.666,492.821 135.499,488.155 135,483.5C 130.263,482.531 125.43,482.197 120.5,482.5C 118.1,479.097 115.1,476.43 111.5,474.5C 114.288,472.024 117.622,471.024 121.5,471.5C 121.5,468.5 121.5,465.5 121.5,462.5 Z"/></g>
<g><path style="opacity:0.968" fill="#cf25f8" d="M 203.5,436.5 C 208.028,439.678 211.362,443.678 213.5,448.5C 213.5,456.167 213.5,463.833 213.5,471.5C 219.957,470.975 224.457,473.642 227,479.5C 228.795,487.135 228.961,494.801 227.5,502.5C 221.932,499.613 218.266,495.279 216.5,489.5C 216.799,487.396 216.466,485.396 215.5,483.5C 212.242,482.583 208.909,482.249 205.5,482.5C 202.5,479.167 199.5,475.833 196.5,472.5C 197.919,471.549 199.585,471.216 201.5,471.5C 201.333,460.495 201.5,449.495 202,438.5C 202.278,437.584 202.778,436.918 203.5,436.5 Z"/></g>
<g><path style="opacity:0.938" fill="#9f4ff1" d="M 378.5,464.5 C 386.798,472.298 394.965,480.298 403,488.5C 403.383,487.944 403.883,487.611 404.5,487.5C 404.666,492.179 404.499,496.845 404,501.5C 403.576,504.025 402.41,506.025 400.5,507.5C 398.167,504.5 395.5,501.833 392.5,499.5C 392.807,493.907 392.473,488.407 391.5,483C 386.083,482.219 380.75,482.385 375.5,483.5C 373.901,480.488 371.567,477.488 368.5,474.5C 371.288,472.024 374.622,471.024 378.5,471.5C 378.5,469.167 378.5,466.833 378.5,464.5 Z"/></g>
<g><path style="opacity:0.956" fill="#a648f2" d="M 368.5,474.5 C 371.567,477.488 373.901,480.488 375.5,483.5C 375.193,489.093 375.527,494.593 376.5,500C 381.917,500.781 387.25,500.615 392.5,499.5C 395.5,501.833 398.167,504.5 400.5,507.5C 399.473,509.194 398.139,510.527 396.5,511.5C 388.167,511.5 379.833,511.5 371.5,511.5C 367.713,509.203 365.213,505.869 364,501.5C 363.333,494.833 363.333,488.167 364,481.5C 364.516,478.453 366.016,476.12 368.5,474.5 Z"/></g>
<g><path style="opacity:0.978" fill="#da1cfa" d="M 196.5,472.5 C 199.5,475.833 202.5,479.167 205.5,482.5C 203.533,482.261 201.699,482.594 200,483.5C 199.194,489.084 199.361,494.584 200.5,500C 205.5,500.667 210.5,500.667 215.5,500C 216.456,496.606 216.789,493.106 216.5,489.5C 218.266,495.279 221.932,499.613 227.5,502.5C 226.225,506.773 223.558,509.773 219.5,511.5C 211.5,511.5 203.5,511.5 195.5,511.5C 188.464,506.739 185.797,500.072 187.5,491.5C 186.382,484.76 188.049,478.926 192.5,474C 193.745,473.209 195.078,472.709 196.5,472.5 Z"/></g>
<g><path style="opacity:0.926" fill="#f307fd" d="M 111.5,474.5 C 115.1,476.43 118.1,479.097 120.5,482.5C 119.883,482.611 119.383,482.944 119,483.5C 118.333,488.833 118.333,494.167 119,499.5C 124.082,500.637 129.249,500.804 134.5,500C 135.252,499.329 135.586,498.496 135.5,497.5C 139.338,499.994 142.005,503.327 143.5,507.5C 142.473,509.194 141.139,510.527 139.5,511.5C 131.167,511.5 122.833,511.5 114.5,511.5C 110.713,509.203 108.213,505.869 107,501.5C 106.333,494.833 106.333,488.167 107,481.5C 107.516,478.453 109.016,476.12 111.5,474.5 Z"/></g>
</svg>
